# xmcd
# Track frame offsets:
# 150
# 9972
# 22655
# 32841
# 43016
# 55774
# 67437
# 81065
# 94518
# 107235
# 121306
# 136039
# 150486
# 163882
# 175883
# 189454
# 201629
# 217975
# 230229
# 240632
# 254288
#
# Disc length: 3573 seconds
# Revision: 0
# Processed by: cddbd v1.5.2PL0 Copyright (c) Steve Scherf et al.
# Submitted via: VisiTrax 2.11.3.279 - For more info visit www.synapsa.com
#
DISCID=1d0df315
DTITLE=Geno Washington and The Ram Jam Band - Geno! The Picadilly and Pye Studi
DTITLE=o Recordings 1966-72: *ReMastered Tracks: CD2: Tracks 1-13: The Single
DTITLE=s 1968-72: Tracks 14-21: Prev. Unreleased Bonus Tracks
DYEAR=1968
DGENRE=R&B
TTITLE0=Geno Washington and The Ram Jam Band - Different Strokes*
TTITLE1=Geno Washington and The Ram Jam Band - You Got Me Hummin*
TTITLE2=Geno Washington and The Ram Jam Band - I Can't Quit Her*
TTITLE3=Geno Washington and The Ram Jam Band - Put Out The Fire*
TTITLE4=Geno Washington and The Ram Jam Band - Bring It To Me Baby*
TTITLE5=Geno Washington and The Ram Jam Band - I Can't Let You Go*
TTITLE6=Geno Washington and The Ram Jam Band - My Little Chickadee*
TTITLE7=Geno Washington and The Ram Jam Band - Seven Eleven*
TTITLE8=Geno Washington and The Ram Jam Band - Alison Please*
TTITLE9=Geno Washington and The Ram Jam Band - Each And Every Part Of Me*
TTITLE10=Geno Washington and The Ram Jam Band - Feeling So Good (Skooby Doo)*
TTITLE11=Geno Washington and The Ram Jam Band - Dirty, Dirty*
TTITLE12=Geno Washington and The Ram Jam Band - Give 'Em A Hand*
TTITLE13=Geno Washington and The Ram Jam Band - If This Is Love (I'd Rather Be Lo
TTITLE13=nely)*
TTITLE14=Geno Washington and The Ram Jam Band - Going Back*
TTITLE15=Geno Washington and The Ram Jam Band - Listen To My Love Songf That Ain'
TTITLE15=t Got A Rhyme*
TTITLE16=Geno Washington and The Ram Jam Band - Careful Not To Break The Spell*
TTITLE17=Geno Washington and The Ram Jam Band - I Was Kaiser Bill's Batman*
TTITLE18=Geno Washington and The Ram Jam Band - Boomerang*
TTITLE19=Geno Washington and The Ram Jam Band - She's All I Got*
TTITLE20=Geno (Washington) And Frenchie - Summer Fever*
EXTD=Compilation and ReMastering: Sanctuary/Demon/Edsel: 2016\nTracks 1-13: T
EXTD=he Singles 1968-72: Tracks 14-21: Prev. Unreleased Bonus Tracks
EXTT0=
EXTT1=
EXTT2=
EXTT3=
EXTT4=
EXTT5=
EXTT6=
EXTT7=
EXTT8=
EXTT9=
EXTT10=
EXTT11=
EXTT12=
EXTT13=
EXTT14=
EXTT15=
EXTT16=
EXTT17=
EXTT18=
EXTT19=
EXTT20=
PLAYORDER=
